<?xml version="1.0" encoding="utf-8"?>
<!-- Generator: Adobe Illustrator 16.0.0, SVG Export Plug-In . SVG Version: 6.00 Build 0)  -->
<!DOCTYPE svg PUBLIC "-//W3C//DTD SVG 1.1//EN" "http://www.w3.org/Graphics/SVG/1.1/DTD/svg11.dtd">
<svg version="1.1" id="Layer_1" xmlns="http://www.w3.org/2000/svg" xmlns:xlink="http://www.w3.org/1999/xlink" x="0px" y="0px"
	 width="2723.347px" height="635.973px" viewBox="0 0 2723.347 635.973" enable-background="new 0 0 2723.347 635.973"
	 xml:space="preserve">
<g>
	<g>
		<path fill="#00A651" d="M469.655,258.281l82.639-0.257v109.317l5.954-2.593l5.961-2.591c18.648-6.73,37.729-10.101,57.252-10.101
			c19.686,0,38.848,3.37,57.503,10.101c18.132,6.74,34.45,16.671,48.965,29.793c14.324,12.951,25.462,28.065,33.41,45.335
			c8.113,17.444,12.175,36.181,12.175,56.212c0,20.551-3.973,39.375-11.915,56.473c-7.944,17.096-19.168,32.291-33.67,45.592
			c-14.686,13.301-31.01,23.227-48.965,29.787c-18.132,7.082-37.301,10.623-57.503,10.623c-26.429,0-51.387-6.217-74.867-18.652
			c-23.49-12.262-42.139-29.184-55.956-50.771c-13.816-21.244-20.811-44.988-20.982-71.236V258.281z M573.013,541.164
			c13.64,13.297,29.79,19.945,48.448,19.945c18.813,0,35.053-6.648,48.698-19.945c13.811-13.301,20.723-29.186,20.723-47.666
			c0-12.088-3.199-23.141-9.585-33.159c-6.397-10.185-14.938-18.304-25.648-24.353c-10.535-6.037-21.934-9.064-34.188-9.064
			c-11.921,0-23.233,3.027-33.939,9.064c-10.71,6.049-19.261,14.168-25.646,24.353c-6.392,10.019-9.581,21.071-9.581,33.159
			C552.294,511.979,559.196,527.863,573.013,541.164z"/>
		<path fill="#00A651" d="M786.472,259.838l82.629-0.257v367.325l-82.629,1.035V259.838z"/>
		<path fill="#00A651" d="M1103.541,619.652c-5.529,2.422-9.585,4.061-12.178,4.92c-18.307,7.082-37.479,10.625-57.507,10.625
			c-26.426,0-51.377-6.135-74.864-18.396c-23.486-12.434-42.139-29.355-55.955-50.771c-13.988-21.762-20.979-46.02-20.979-72.791
			c0-20.208,4.053-39.025,12.175-56.473c8.116-17.266,19.254-32.291,33.414-45.074c13.991-12.773,30.224-22.535,48.701-29.27
			c18.48-7.08,37.649-10.621,57.509-10.621c19.688,0,38.857,3.455,57.507,10.357c18.654,6.915,34.884,16.76,48.701,29.533
			c14.505,13.126,25.729,28.156,33.674,45.074c8.113,17.447,12.178,36.265,12.178,56.473l-0.26,134.961l-82.115-0.773V619.652z
			 M974.274,459.828c-6.386,10.187-9.581,21.324-9.581,33.41c0,18.304,6.902,34.111,20.719,47.402
			c13.643,13.129,29.793,19.688,48.444,19.688c18.82,0,35.057-6.559,48.702-19.688c13.811-13.291,20.719-29.099,20.719-47.402
			c0-12.086-3.195-23.224-9.581-33.41c-6.392-10.193-14.939-18.31-25.646-24.355c-10.539-5.871-21.937-8.808-34.194-8.808
			c-11.914,0-23.227,2.937-33.937,8.808C989.21,441.519,980.663,449.635,974.274,459.828z"/>
		<path fill="#00A651" d="M1402.998,442.207c-7.432-6.221-15.547-10.885-24.35-13.988c-9.156-3.11-18.832-4.664-29.016-4.664
			c-19,0-35.059,6.135-48.184,18.395c-13.298,12.264-19.946,27.454-19.946,45.589c0,14.163,2.851,26.856,8.551,38.081
			c5.523,11.227,13.726,20.115,24.607,26.68c10.531,6.736,22.709,10.104,36.527,10.104c20.375,0,37.82-6.475,52.324-19.428
			l45.334,57.512c-6.564,6.904-15.719,13.037-27.455,18.389c-11.922,5.355-24.184,9.324-36.785,11.918
			c-12.611,2.586-24.27,3.887-34.973,3.887c-30.053,0-56.561-6.309-79.525-18.914c-22.973-12.777-40.588-29.531-52.846-50.254
			c-12.266-21.07-18.392-43.605-18.392-67.612c0-21.927,3.713-41.79,11.138-59.579c7.597-18.133,18.044-33.678,31.341-46.629
			c13.125-12.605,29.102-22.535,47.925-29.789c18.652-7.077,38.769-10.621,60.359-10.621c17.615,0,34.797,2.764,51.549,8.291
			c16.918,5.699,31.859,13.728,44.814,24.092L1402.998,442.207z"/>
		<path fill="#00A651" d="M1461.8,627.426v-367.33l82.893-0.258v203.091h1.037l85.744-100.507h97.141l-95.846,113.722
			l112.684,151.282h-103.359l-97.4-130.043v130.043H1461.8z"/>
		<path fill="#00A651" d="M1841.296,259.581v118.122c7.945-8.113,17.787-14.504,29.533-19.172c11.914-4.657,24.004-6.99,36.268-6.99
			c66.479,0,99.727,38.943,99.727,116.832v159.053l-82.889,0.256V474.066c0-15.881-3.627-27.799-10.881-35.746
			c-7.254-7.943-17.445-11.918-30.57-11.918c-12.779,0-22.793,3.975-30.049,11.918c-7.424,7.947-11.139,19.865-11.139,35.746
			v153.359l-82.895,0.516V259.838L1841.296,259.581z"/>
		<path fill="#00A651" d="M2096.716,617.32c-23.486-12.434-42.137-29.443-55.953-51.031c-13.988-21.756-20.984-46.111-20.984-73.051
			c0-20.208,4.055-39.025,12.174-56.473c8.117-17.44,19.254-32.551,33.416-45.331c14.338-12.958,30.656-22.882,48.963-29.79
			c18.648-6.904,37.73-10.363,57.248-10.363c19.689,0,38.855,3.459,57.506,10.363c18.137,6.566,34.455,16.41,48.959,29.527
			c14.334,13.132,25.473,28.328,33.42,45.594c8.113,17.447,12.176,36.265,12.176,56.473c0,20.555-3.977,39.375-11.916,56.473
			c-7.945,17.266-19.168,32.551-33.68,45.852c-14.68,13.125-31,23.053-48.959,29.787c-18.129,7.082-37.297,10.623-57.506,10.623
			C2145.158,635.973,2120.197,629.756,2096.716,617.32z M2123.138,540.904c13.641,13.299,29.791,19.945,48.441,19.945
			c18.82,0,35.053-6.646,48.699-19.945c13.811-13.299,20.723-29.186,20.723-47.666c0-12.086-3.193-23.224-9.584-33.41
			c-6.393-10.193-14.943-18.31-25.645-24.355c-10.535-6.046-21.932-9.07-34.193-9.07c-11.92,0-23.227,3.024-33.934,9.07
			c-10.709,6.046-19.26,14.162-25.645,24.355c-6.395,10.187-9.586,21.324-9.586,33.41
			C2102.416,511.719,2109.318,527.605,2123.138,540.904z"/>
		<path fill="#00A651" d="M2336.587,259.838l82.639-0.257v367.325l-82.639,1.035V259.838z"/>
		<path fill="#00A651" d="M2711.685,437.026c7.775,17.45,11.662,36.096,11.662,55.956v2.33c0,0.861-0.092,1.813-0.26,2.85
			l-0.521,4.4h-32.115v0.521h-178.227c2.068,14.505,8.375,27.028,18.912,37.558c13.297,13.129,28.84,19.688,46.625,19.688
			c17.959,0,33.504-6.559,46.625-19.688l0.523-0.514l0.773-1.037l0.777-0.777l0.52-0.779l44.555,63.727
			c-12.779,10.361-25.73,18.225-38.854,23.576c-17.615,6.902-35.928,10.361-54.92,10.361c-25.734,0-49.652-6.135-71.756-18.396
			c-22.625-12.434-40.498-29.438-53.623-51.031c-13.469-21.588-20.201-45.848-20.201-72.787c0-20.209,3.883-38.861,11.654-55.956
			c7.77-17.267,18.475-32.292,32.125-45.075c13.818-13.122,29.354-23.053,46.625-29.793c17.781-6.902,36.174-10.357,55.176-10.357
			c18.992,0,37.305,3.455,54.92,10.357c17.438,6.74,33.07,16.585,46.885,29.533C2693.208,404.304,2703.917,419.408,2711.685,437.026
			z M2577.761,426.665c-11.572,0-22.447,2.937-32.637,8.808c-6.221,3.799-12.266,9.156-18.135,16.059h101.545
			c-5.879-6.902-11.916-12.26-18.133-16.059C2600.208,429.602,2589.332,426.665,2577.761,426.665z"/>
	</g>
	<path fill="#00A651" d="M410.142,138.068c-8.42-29.659-24.826-57.57-48.288-81.045c-76.629-76.616-200.62-75.736-277.238,0.889
		c-23.11,23.107-40.229,51.385-49.192,80.162h68.335c5.415-12.797,14.87-24.725,25.585-35.432
		c52.249-52.261,136.408-52.276,187.788-0.898c11.081,11.076,19.034,23.473,25.678,36.33h-33.66l0,0l33.66,42.512l33.652,42.505
		l34.558-43.386l34.556-41.646L410.142,138.068z"/>
	<path fill="#00A651" d="M341.809,258.26c-5.413,12.795-14.867,24.721-25.58,35.43c-25.99,25.992-59.876,39.063-93.693,39.305
		c-0.724,0.01-1.447,0.01-2.167,0c-33.443-0.297-66.651-13.133-91.928-38.409c-11.078-11.071-19.029-23.472-25.673-36.325
		c-0.002-0.002-0.004-0.003-0.004-0.003h33.662l-33.662-42.512l-33.655-42.509l-34.554,43.391L0,258.268l35.429-0.008v20.501
		v357.204h374.723V277.566V258.26H341.809z M346.817,351.271v8.553v8.383v204.422H98.764V369.713v-8.337v-8.501
		c0.913,0.747,1.838,1.479,2.764,2.204c0.244,0.19,0.486,0.386,0.735,0.575c0.347,0.271,0.697,0.537,1.049,0.803
		c0.259,0.203,0.522,0.404,0.786,0.604c0.349,0.264,0.694,0.523,1.041,0.781c0.271,0.201,0.54,0.399,0.809,0.602
		c0.348,0.257,0.696,0.51,1.045,0.766c0.268,0.197,0.54,0.391,0.811,0.586c0.353,0.256,0.703,0.506,1.057,0.757
		c0.269,0.189,0.539,0.38,0.809,0.569c0.357,0.25,0.713,0.501,1.072,0.752c0.26,0.178,0.515,0.352,0.771,0.529
		c0.375,0.254,0.748,0.512,1.126,0.768c0.13,0.087,0.261,0.171,0.396,0.263c0.852,0.571,1.705,1.136,2.564,1.69
		c0.232,0.155,0.465,0.307,0.7,0.459c0.375,0.238,0.751,0.478,1.129,0.716c0.266,0.169,0.532,0.337,0.8,0.501
		c0.366,0.231,0.74,0.461,1.111,0.693c0.272,0.166,0.546,0.336,0.822,0.505c0.369,0.224,0.74,0.449,1.11,0.671
		c0.275,0.166,0.552,0.33,0.83,0.496c0.37,0.221,0.745,0.441,1.118,0.66c0.275,0.16,0.552,0.318,0.824,0.477
		c0.381,0.221,0.762,0.439,1.141,0.658c0.26,0.146,0.521,0.292,0.783,0.439c0.397,0.223,0.795,0.449,1.19,0.668
		c0.17,0.093,0.338,0.185,0.508,0.274c0.894,0.495,1.796,0.979,2.697,1.458c0.2,0.104,0.399,0.213,0.6,0.318
		c0.407,0.21,0.811,0.421,1.218,0.627c0.26,0.137,0.521,0.275,0.782,0.408c0.399,0.199,0.789,0.396,1.184,0.598
		c0.275,0.134,0.549,0.275,0.827,0.41c0.39,0.193,0.784,0.387,1.179,0.58c0.275,0.131,0.553,0.268,0.831,0.402
		c0.396,0.189,0.792,0.379,1.185,0.565c0.275,0.132,0.551,0.257,0.826,0.384c0.4,0.189,0.801,0.378,1.209,0.563
		c0.259,0.118,0.516,0.234,0.775,0.352c0.422,0.191,0.841,0.385,1.267,0.574c0.179,0.076,0.353,0.149,0.527,0.228
		c1.015,0.45,2.033,0.89,3.058,1.321c0.108,0.043,0.219,0.092,0.329,0.136c0.44,0.185,0.881,0.364,1.324,0.548
		c0.246,0.1,0.491,0.2,0.737,0.303c0.423,0.168,0.841,0.336,1.266,0.504c0.27,0.104,0.535,0.211,0.803,0.318
		c0.418,0.16,0.835,0.321,1.251,0.482c0.273,0.105,0.546,0.209,0.818,0.314c0.416,0.154,0.836,0.314,1.257,0.469
		c0.266,0.1,0.536,0.195,0.807,0.296c0.426,0.155,0.851,0.31,1.277,0.466c0.251,0.086,0.501,0.174,0.749,0.264
		c0.453,0.154,0.904,0.314,1.352,0.468c0.17,0.063,0.338,0.116,0.503,0.173c1.648,0.563,3.296,1.102,4.956,1.615
		c0.214,0.069,0.429,0.139,0.644,0.204c0.454,0.14,0.907,0.278,1.358,0.411c0.252,0.076,0.505,0.15,0.755,0.229
		c0.443,0.131,0.887,0.26,1.335,0.388c0.259,0.072,0.519,0.147,0.78,0.22c0.444,0.127,0.89,0.254,1.333,0.373
		c0.257,0.071,0.511,0.142,0.767,0.212c0.452,0.122,0.908,0.245,1.36,0.364c0.235,0.064,0.471,0.121,0.705,0.182
		c0.478,0.123,0.956,0.249,1.436,0.368c0.151,0.038,0.305,0.077,0.462,0.112c1.737,0.436,3.483,0.842,5.232,1.228
		c0.165,0.036,0.326,0.071,0.489,0.11c0.493,0.105,0.983,0.207,1.476,0.309c0.222,0.049,0.45,0.095,0.676,0.141
		c0.472,0.098,0.947,0.192,1.423,0.285c0.239,0.05,0.476,0.094,0.717,0.14c0.473,0.093,0.948,0.184,1.419,0.269
		c0.237,0.045,0.473,0.09,0.708,0.133c0.481,0.088,0.965,0.172,1.446,0.258c0.216,0.037,0.425,0.072,0.638,0.108
		c0.51,0.089,1.02,0.175,1.529,0.259c0.127,0.021,0.255,0.039,0.382,0.057c1.867,0.301,3.736,0.578,5.609,0.822
		c0.074,0.006,0.151,0.02,0.228,0.029c0.54,0.07,1.075,0.135,1.613,0.2c0.185,0.024,0.371,0.046,0.557,0.067
		c0.508,0.061,1.019,0.117,1.529,0.176c0.208,0.023,0.419,0.046,0.631,0.068c0.503,0.053,1.007,0.104,1.51,0.156
		c0.212,0.02,0.422,0.043,0.633,0.062c0.511,0.049,1.026,0.099,1.533,0.142c0.186,0.016,0.372,0.035,0.557,0.051
		c0.542,0.046,1.081,0.086,1.623,0.13c0.098,0.007,0.198,0.016,0.296,0.021c2.562,0.197,5.129,0.339,7.691,0.431
		c0.138,0.008,0.268,0.013,0.402,0.016c0.548,0.02,1.094,0.035,1.638,0.047c0.178,0.004,0.352,0.014,0.529,0.016
		c0.532,0.013,1.07,0.023,1.603,0.026c0.182,0.003,0.359,0.008,0.535,0.009c0.54,0.01,1.089,0.013,1.63,0.016
		c0.153,0,0.306,0,0.459,0c0.573,0,1.146,0,1.717-0.003c0.07,0,0.138,0,0.208,0c2.641-0.021,5.283-0.098,7.918-0.225
		c0.073-0.003,0.144-0.005,0.211-0.008c0.584-0.03,1.173-0.063,1.758-0.098c0.134-0.008,0.268-0.017,0.402-0.022
		c0.566-0.035,1.134-0.07,1.697-0.109c0.146-0.012,0.291-0.021,0.437-0.033c0.566-0.037,1.137-0.083,1.704-0.131
		c0.124-0.007,0.246-0.016,0.369-0.025c0.603-0.053,1.2-0.102,1.798-0.158c0.04-0.006,0.075-0.007,0.116-0.01
		c3.341-0.307,6.675-0.694,9.999-1.176c0.084-0.012,0.173-0.021,0.26-0.034c0.595-0.09,1.188-0.177,1.787-0.269
		c0.109-0.019,0.219-0.029,0.326-0.051c0.595-0.094,1.189-0.188,1.786-0.286c0.084-0.017,0.174-0.027,0.269-0.046
		c0.618-0.104,1.24-0.206,1.862-0.32c0.011-0.002,0.025-0.004,0.039-0.004c1.679-0.299,3.356-0.617,5.029-0.955
		c1.676-0.344,3.347-0.709,5.014-1.092c0.039-0.008,0.078-0.018,0.119-0.029c0.619-0.143,1.243-0.287,1.86-0.441
		c0.072-0.016,0.147-0.034,0.221-0.051c0.613-0.152,1.228-0.301,1.84-0.459c0.063-0.016,0.123-0.029,0.185-0.046
		c0.694-0.177,1.387-0.359,2.079-0.538c3.935-1.051,7.84-2.223,11.718-3.514c0.043-0.014,0.081-0.027,0.126-0.04
		c0.628-0.211,1.249-0.422,1.874-0.641c0.04-0.013,0.073-0.024,0.11-0.034c2.289-0.795,4.563-1.628,6.827-2.51
		c2.26-0.881,4.508-1.802,6.743-2.767c0.021-0.005,0.034-0.014,0.051-0.022c0.625-0.27,1.252-0.542,1.875-0.822
		c0.024-0.009,0.042-0.016,0.063-0.025c2.554-1.139,5.091-2.332,7.603-3.582c2.515-1.25,5.005-2.559,7.477-3.923
		c0.007-0.005,0.022-0.013,0.033-0.017c2.473-1.365,4.919-2.789,7.346-4.27c2.424-1.48,4.824-3.014,7.193-4.607
		c0.014-0.009,0.022-0.017,0.033-0.022c4.74-3.185,9.373-6.599,13.883-10.239c0.02-0.015,0.033-0.025,0.054-0.041
		c0.555-0.447,1.111-0.898,1.66-1.355c0.005-0.002,0.006-0.006,0.008-0.007C346.819,351.27,346.817,351.271,346.817,351.271z"/>
	<path fill="none" d="M132.508,389.785c0.467,0.22,0.932,0.436,1.397,0.654C133.439,390.221,132.975,390.005,132.508,389.785z"/>
	<path fill="none" d="M141.642,393.829c0.169,0.071,0.336,0.143,0.504,0.213C141.978,393.972,141.811,393.9,141.642,393.829z"/>
	<path fill="none" d="M134.65,390.78c0.263,0.118,0.52,0.237,0.779,0.356C135.17,391.018,134.913,390.898,134.65,390.78z"/>
	<path fill="none" d="M139.935,393.115c0.214,0.089,0.433,0.182,0.65,0.273C140.367,393.297,140.148,393.204,139.935,393.115z"/>
	<path fill="none" d="M129.443,388.307c0.311,0.152,0.618,0.304,0.929,0.455C130.062,388.61,129.754,388.459,129.443,388.307z"/>
	<path fill="none" d="M136.234,391.5c0.24,0.105,0.48,0.209,0.716,0.32C136.715,391.709,136.475,391.605,136.234,391.5z"/>
	<path fill="none" d="M130.943,389.035c0.3,0.145,0.597,0.291,0.896,0.432C131.54,389.326,131.243,389.18,130.943,389.035z"/>
	<path fill="none" d="M115.741,380.896c0.401,0.236,0.795,0.471,1.196,0.701C116.536,381.367,116.143,381.133,115.741,380.896z"/>
	<path fill="none" d="M116.956,381.613c1.179,0.682,2.366,1.355,3.558,2.016C119.322,382.969,118.135,382.295,116.956,381.613z"/>
	<path fill="none" d="M112.135,378.719c1.182,0.729,2.368,1.448,3.563,2.152C114.503,380.167,113.316,379.448,112.135,378.719z"/>
	<path fill="none" d="M125.765,386.445c0.344,0.181,0.689,0.356,1.035,0.535C126.454,386.802,126.108,386.626,125.765,386.445z"/>
	<path fill="none" d="M127.052,387.105c0.651,0.332,1.307,0.666,1.965,0.988C128.358,387.771,127.703,387.438,127.052,387.105z"/>
	<path fill="none" d="M121.917,384.402c1.155,0.63,2.318,1.248,3.482,1.854C124.235,385.65,123.072,385.032,121.917,384.402z"/>
	<path fill="none" d="M120.702,383.736c0.374,0.207,0.754,0.416,1.135,0.623C121.456,384.152,121.076,383.943,120.702,383.736z"/>
	<path fill="none" d="M138.354,392.438c0.203,0.088,0.41,0.175,0.613,0.264C138.764,392.612,138.557,392.525,138.354,392.438z"/>
	<path fill="none" d="M149.018,396.723c0.148,0.057,0.308,0.111,0.457,0.17C149.325,396.834,149.166,396.779,149.018,396.723z"/>
	<path fill="none" d="M147.16,396.023c0.085,0.033,0.176,0.07,0.264,0.104C147.336,396.094,147.245,396.057,147.16,396.023z"/>
	<path fill="none" d="M150.688,397.332c0.158,0.059,0.318,0.111,0.475,0.172C151.007,397.443,150.847,397.391,150.688,397.332z"/>
	<path fill="none" d="M145.285,395.302c0.182,0.069,0.36,0.141,0.544,0.206C145.646,395.442,145.467,395.371,145.285,395.302z"/>
	<path fill="none" d="M143.656,394.654c0.167,0.066,0.335,0.134,0.508,0.203C143.991,394.788,143.823,394.721,143.656,394.654z"/>
	<path fill="#036D32" d="M126.8,386.98c0.084,0.043,0.168,0.084,0.252,0.125C126.968,387.064,126.884,387.023,126.8,386.98z"/>
	<path fill="#036D32" d="M151.163,397.504c0.54,0.195,1.082,0.384,1.624,0.573C152.245,397.888,151.703,397.699,151.163,397.504z"/>
	<path fill="#036D32" d="M125.399,386.256c0.122,0.065,0.243,0.127,0.365,0.189C125.643,386.383,125.521,386.321,125.399,386.256z"
		/>
	<path fill="#036D32" d="M121.837,384.359c0.027,0.014,0.053,0.029,0.08,0.043C121.89,384.389,121.864,384.373,121.837,384.359z"/>
	<path fill="#036D32" d="M115.698,380.871c0.013,0.014,0.031,0.02,0.043,0.025C115.729,380.891,115.711,380.885,115.698,380.871z"/>
	<path fill="#036D32" d="M116.938,381.598c0.008,0.005,0.012,0.01,0.019,0.016C116.949,381.607,116.945,381.603,116.938,381.598z"/>
	<path fill="#036D32" d="M120.514,383.629c0.057,0.037,0.122,0.07,0.188,0.107C120.636,383.699,120.57,383.666,120.514,383.629z"/>
	<path fill="#036D32" d="M346.812,351.275c-0.549,0.457-1.105,0.908-1.66,1.355c-0.021,0.016-0.034,0.026-0.054,0.041
		c-4.511,3.641-9.143,7.055-13.883,10.239c-0.011,0.006-0.02,0.014-0.033,0.022c-2.369,1.594-4.77,3.127-7.193,4.607
		c-2.427,1.48-4.873,2.904-7.346,4.27c-0.011,0.004-0.026,0.012-0.033,0.017c-2.472,1.364-4.962,2.673-7.477,3.923
		c-2.512,1.25-5.049,2.443-7.603,3.582c-0.021,0.01-0.039,0.017-0.063,0.025c-0.623,0.28-1.25,0.553-1.875,0.822
		c-0.017,0.009-0.03,0.018-0.051,0.022c-2.235,0.965-4.483,1.886-6.743,2.767c-2.265,0.882-4.538,1.715-6.827,2.51
		c-0.037,0.01-0.07,0.021-0.11,0.034c-0.625,0.219-1.246,0.43-1.874,0.641c-0.045,0.013-0.083,0.026-0.126,0.04
		c-3.878,1.295-7.783,2.463-11.718,3.514c-0.692,0.179-1.385,0.361-2.079,0.538c-0.062,0.017-0.122,0.03-0.185,0.046
		c-0.612,0.158-1.227,0.307-1.84,0.459c-0.073,0.017-0.148,0.035-0.221,0.051c-0.617,0.154-1.241,0.299-1.86,0.441
		c-0.041,0.012-0.08,0.021-0.119,0.029c-1.667,0.383-3.338,0.748-5.014,1.092c-1.673,0.338-3.351,0.656-5.029,0.955
		c-0.014,0-0.028,0.002-0.039,0.004c-0.622,0.114-1.244,0.217-1.862,0.32c-0.095,0.019-0.185,0.029-0.269,0.046
		c-0.597,0.099-1.191,0.192-1.786,0.286c-0.107,0.021-0.217,0.032-0.326,0.051c-0.599,0.092-1.192,0.179-1.787,0.269
		c-0.087,0.013-0.176,0.022-0.26,0.034c-3.324,0.481-6.658,0.869-9.999,1.176c-0.041,0.003-0.076,0.004-0.116,0.01
		c-0.598,0.057-1.195,0.105-1.798,0.158c-0.123,0.01-0.245,0.019-0.369,0.025c-0.567,0.048-1.138,0.094-1.704,0.131
		c-0.146,0.012-0.291,0.021-0.437,0.033c-0.563,0.039-1.131,0.074-1.697,0.109c-0.135,0.006-0.269,0.015-0.402,0.022
		c-0.585,0.035-1.174,0.067-1.758,0.098c-0.067,0.003-0.138,0.005-0.211,0.008c-2.635,0.127-5.277,0.203-7.918,0.225
		c-0.07,0-0.138,0-0.208,0c-0.571,0.003-1.144,0.003-1.717,0.003c-0.153,0-0.306,0-0.459,0c-0.541-0.003-1.09-0.006-1.63-0.016
		c-0.176-0.001-0.354-0.006-0.535-0.009c-0.532-0.003-1.07-0.014-1.603-0.026c-0.178-0.002-0.352-0.012-0.529-0.016
		c-0.544-0.012-1.09-0.027-1.638-0.047c-0.135-0.003-0.265-0.008-0.402-0.016c-2.563-0.092-5.13-0.233-7.691-0.431
		c-0.098-0.006-0.198-0.015-0.296-0.021c-0.542-0.044-1.081-0.084-1.623-0.13c-0.185-0.016-0.371-0.035-0.557-0.051
		c-0.507-0.043-1.022-0.093-1.533-0.142c-0.211-0.019-0.421-0.042-0.633-0.062c-0.503-0.052-1.007-0.104-1.51-0.156
		c-0.212-0.022-0.423-0.045-0.631-0.068c-0.511-0.059-1.021-0.115-1.529-0.176c-0.186-0.021-0.372-0.043-0.557-0.067
		c-0.538-0.065-1.073-0.13-1.613-0.2c-0.076-0.01-0.153-0.023-0.228-0.029c-1.873-0.244-3.742-0.521-5.609-0.822
		c-0.127-0.018-0.255-0.035-0.382-0.057c-0.51-0.084-1.02-0.17-1.529-0.259c-0.213-0.036-0.422-0.071-0.638-0.108
		c-0.481-0.086-0.965-0.17-1.446-0.258c-0.235-0.043-0.471-0.088-0.708-0.133c-0.471-0.085-0.946-0.176-1.419-0.269
		c-0.241-0.046-0.478-0.09-0.717-0.14c-0.476-0.093-0.951-0.188-1.423-0.285c-0.226-0.046-0.454-0.092-0.676-0.141
		c-0.492-0.102-0.982-0.203-1.476-0.309c-0.163-0.039-0.324-0.074-0.489-0.11c-1.749-0.386-3.495-0.792-5.232-1.228
		c-0.157-0.035-0.311-0.074-0.462-0.112c-0.479-0.119-0.958-0.245-1.436-0.368c-0.234-0.061-0.47-0.117-0.705-0.182
		c-0.452-0.119-0.908-0.242-1.36-0.364c-0.256-0.07-0.51-0.141-0.767-0.212c-0.443-0.119-0.889-0.246-1.333-0.373
		c-0.262-0.072-0.521-0.147-0.78-0.22c-0.448-0.128-0.892-0.257-1.335-0.388c-0.25-0.078-0.503-0.152-0.755-0.229
		c-0.451-0.133-0.904-0.271-1.358-0.411c-0.215-0.065-0.43-0.135-0.644-0.204c-1.66-0.514-3.308-1.053-4.956-1.615
		c-0.165-0.057-0.333-0.11-0.503-0.173c-0.447-0.153-0.898-0.313-1.352-0.468c-0.248-0.09-0.498-0.178-0.749-0.264
		c-0.427-0.156-0.852-0.311-1.277-0.466c-0.271-0.101-0.541-0.196-0.807-0.296c-0.421-0.154-0.841-0.314-1.257-0.469
		c-0.272-0.105-0.545-0.209-0.818-0.314c-0.416-0.161-0.833-0.322-1.251-0.482c-0.268-0.107-0.533-0.214-0.803-0.318
		c-0.425-0.168-0.843-0.336-1.266-0.504c-0.246-0.103-0.491-0.203-0.737-0.303c-0.443-0.184-0.884-0.363-1.324-0.548
		c-0.11-0.044-0.221-0.093-0.329-0.136c-1.024-0.432-2.043-0.871-3.058-1.321c-0.175-0.078-0.349-0.151-0.527-0.228
		c-0.426-0.189-0.845-0.383-1.267-0.574c-0.26-0.117-0.517-0.233-0.775-0.352c-0.408-0.185-0.809-0.373-1.209-0.563
		c-0.275-0.127-0.551-0.252-0.826-0.384c-0.393-0.187-0.789-0.376-1.185-0.565c-0.278-0.135-0.556-0.271-0.831-0.402
		c-0.395-0.193-0.789-0.387-1.179-0.58c-0.278-0.135-0.552-0.276-0.827-0.41c-0.395-0.201-0.784-0.398-1.184-0.598
		c-0.262-0.133-0.522-0.271-0.782-0.408c-0.407-0.206-0.811-0.417-1.218-0.627c-0.2-0.105-0.399-0.215-0.6-0.318
		c-0.901-0.479-1.804-0.963-2.697-1.458c-0.17-0.09-0.338-0.182-0.508-0.274c-0.396-0.219-0.793-0.445-1.19-0.668
		c-0.262-0.147-0.523-0.293-0.783-0.439c-0.379-0.219-0.76-0.438-1.141-0.658c-0.272-0.158-0.549-0.316-0.824-0.477
		c-0.373-0.219-0.748-0.439-1.118-0.66c-0.278-0.166-0.555-0.33-0.83-0.496c-0.37-0.222-0.741-0.447-1.11-0.671
		c-0.276-0.169-0.55-0.339-0.822-0.505c-0.371-0.232-0.745-0.462-1.111-0.693c-0.268-0.164-0.534-0.332-0.8-0.501
		c-0.378-0.238-0.754-0.478-1.129-0.716c-0.235-0.152-0.468-0.304-0.7-0.459c-0.859-0.555-1.713-1.119-2.564-1.69
		c-0.135-0.092-0.266-0.176-0.396-0.263c-0.179-0.121-0.355-0.242-0.532-0.361c-0.196-0.137-0.396-0.273-0.594-0.406
		c-0.257-0.178-0.512-0.352-0.771-0.529c-0.359-0.251-0.715-0.502-1.072-0.752c-0.27-0.189-0.54-0.38-0.809-0.569
		c-0.354-0.251-0.704-0.501-1.057-0.757c-0.271-0.195-0.543-0.389-0.811-0.586c-0.349-0.256-0.697-0.509-1.045-0.766
		c-0.269-0.202-0.538-0.4-0.809-0.602c-0.347-0.258-0.692-0.518-1.041-0.781c-0.264-0.199-0.527-0.4-0.786-0.604
		c-0.352-0.266-0.702-0.532-1.049-0.803c-0.249-0.189-0.491-0.385-0.735-0.575c-0.926-0.725-1.851-1.457-2.764-2.204v8.501v8.337
		v202.916h13.342V378.702c0.009,0.006,0.019,0.009,0.029,0.017c1.182,0.729,2.368,1.448,3.563,2.152
		c0.013,0.014,0.031,0.02,0.043,0.025c0.401,0.236,0.795,0.471,1.196,0.701c0.008,0.005,0.012,0.01,0.019,0.016
		c1.179,0.682,2.366,1.355,3.558,2.016c0.057,0.037,0.122,0.07,0.188,0.107c0.374,0.207,0.754,0.416,1.135,0.623
		c0.027,0.014,0.053,0.029,0.08,0.043c1.155,0.63,2.318,1.248,3.482,1.854c0.122,0.065,0.243,0.127,0.365,0.189
		c0.344,0.181,0.689,0.356,1.035,0.535c0.084,0.043,0.168,0.084,0.252,0.125c0.651,0.332,1.307,0.666,1.965,0.988
		c0.143,0.07,0.285,0.143,0.427,0.213c0.311,0.152,0.618,0.304,0.929,0.455c0.19,0.09,0.382,0.184,0.571,0.273
		c0.3,0.145,0.597,0.291,0.896,0.432c0.222,0.105,0.446,0.211,0.668,0.318c0.467,0.22,0.932,0.436,1.397,0.654
		c0.248,0.111,0.496,0.227,0.745,0.341c0.263,0.118,0.52,0.237,0.779,0.356c0.27,0.123,0.539,0.244,0.805,0.363
		c0.24,0.105,0.48,0.209,0.716,0.32c0.469,0.205,0.936,0.412,1.403,0.617c0.203,0.088,0.41,0.175,0.613,0.264
		c0.321,0.136,0.641,0.275,0.968,0.414c0.214,0.089,0.433,0.182,0.65,0.273c0.352,0.146,0.7,0.294,1.057,0.44
		c0.169,0.071,0.336,0.143,0.504,0.213c0.502,0.203,1.003,0.409,1.511,0.612c0.167,0.066,0.335,0.134,0.508,0.203
		c0.373,0.146,0.749,0.296,1.121,0.444c0.182,0.069,0.36,0.141,0.544,0.206c0.44,0.176,0.886,0.346,1.331,0.516
		c0.085,0.033,0.176,0.07,0.264,0.104c0.529,0.199,1.062,0.4,1.594,0.596c0.148,0.057,0.308,0.111,0.457,0.17
		c0.405,0.148,0.808,0.297,1.214,0.439c0.158,0.059,0.318,0.111,0.475,0.172c0.54,0.195,1.082,0.384,1.624,0.573
		c22.075,7.688,45.185,11.589,68.684,11.589h0.019c23.978,0,47.583-4.051,70.163-12.043c19.784-7.002,38.314-16.889,55.165-29.416
		v-8.383v-8.553C346.816,351.273,346.814,351.273,346.812,351.275z"/>
	<path fill="#036D32" d="M140.585,393.389c0.352,0.146,0.7,0.294,1.057,0.44C141.285,393.683,140.937,393.535,140.585,393.389z"/>
	<path fill="#036D32" d="M144.164,394.857c0.373,0.146,0.749,0.296,1.121,0.444C144.913,395.153,144.537,395.004,144.164,394.857z"
		/>
	<path fill="#036D32" d="M136.95,391.82c0.469,0.205,0.936,0.412,1.403,0.617C137.886,392.232,137.419,392.025,136.95,391.82z"/>
	<path fill="#036D32" d="M135.43,391.137c0.27,0.123,0.539,0.244,0.805,0.363C135.969,391.381,135.699,391.26,135.43,391.137z"/>
	<path fill="#036D32" d="M145.829,395.508c0.44,0.176,0.886,0.346,1.331,0.516C146.715,395.854,146.27,395.684,145.829,395.508z"/>
	<path fill="#036D32" d="M138.967,392.701c0.321,0.136,0.641,0.275,0.968,0.414C139.607,392.977,139.288,392.837,138.967,392.701z"
		/>
	<path fill="#036D32" d="M142.146,394.042c0.502,0.203,1.003,0.409,1.511,0.612C143.148,394.451,142.647,394.245,142.146,394.042z"
		/>
	<path fill="#036D32" d="M133.905,390.439c0.248,0.111,0.496,0.227,0.745,0.341C134.401,390.666,134.153,390.551,133.905,390.439z"
		/>
	<path fill="#036D32" d="M149.475,396.893c0.405,0.148,0.808,0.297,1.214,0.439C150.282,397.189,149.88,397.041,149.475,396.893z"/>
	<path fill="#036D32" d="M130.372,388.762c0.19,0.09,0.382,0.184,0.571,0.273C130.754,388.945,130.563,388.852,130.372,388.762z"/>
	<path fill="#036D32" d="M129.017,388.094c0.143,0.07,0.285,0.143,0.427,0.213C129.302,388.236,129.159,388.164,129.017,388.094z"/>
	<path fill="#036D32" d="M147.424,396.127c0.529,0.199,1.062,0.4,1.594,0.596C148.485,396.527,147.953,396.326,147.424,396.127z"/>
	<path fill="#036D32" d="M131.84,389.467c0.222,0.105,0.446,0.211,0.668,0.318C132.286,389.678,132.062,389.572,131.84,389.467z"/>
	<path fill="#09AF50" d="M291.652,397.623c-22.58,7.992-46.186,12.043-70.163,12.043h-0.019c-23.499,0-46.608-3.9-68.684-11.589
		c-0.542-0.189-1.084-0.378-1.624-0.573c-0.156-0.061-0.316-0.113-0.475-0.172c-0.406-0.143-0.809-0.291-1.214-0.439
		c-0.149-0.059-0.309-0.113-0.457-0.17c-0.532-0.195-1.064-0.396-1.594-0.596c-0.088-0.033-0.179-0.07-0.264-0.104
		c-0.445-0.17-0.891-0.34-1.331-0.516c-0.184-0.065-0.362-0.137-0.544-0.206c-0.372-0.148-0.748-0.298-1.121-0.444
		c-0.173-0.069-0.341-0.137-0.508-0.203c-0.508-0.203-1.009-0.409-1.511-0.612c-0.168-0.07-0.335-0.142-0.504-0.213
		c-0.356-0.146-0.705-0.294-1.057-0.44c-0.218-0.092-0.437-0.185-0.65-0.273c-0.327-0.139-0.646-0.278-0.968-0.414
		c-0.203-0.089-0.41-0.176-0.613-0.264c-0.468-0.205-0.935-0.412-1.403-0.617c-0.235-0.111-0.476-0.215-0.716-0.32
		c-0.266-0.119-0.535-0.24-0.805-0.363c-0.26-0.119-0.517-0.238-0.779-0.356c-0.249-0.114-0.497-0.229-0.745-0.341
		c-0.466-0.219-0.931-0.435-1.397-0.654c-0.222-0.107-0.446-0.213-0.668-0.318c-0.3-0.141-0.597-0.287-0.896-0.432
		c-0.189-0.09-0.381-0.184-0.571-0.273c-0.311-0.151-0.618-0.303-0.929-0.455c-0.142-0.07-0.284-0.143-0.427-0.213
		c-0.658-0.322-1.313-0.656-1.965-0.988c-0.084-0.041-0.168-0.082-0.252-0.125c-0.346-0.179-0.691-0.354-1.035-0.535
		c-0.122-0.063-0.243-0.124-0.365-0.189c-1.164-0.605-2.327-1.224-3.482-1.854c-0.027-0.014-0.053-0.029-0.08-0.043
		c-0.381-0.207-0.761-0.416-1.135-0.623c-0.066-0.037-0.132-0.07-0.188-0.107c-1.191-0.66-2.379-1.334-3.558-2.016
		c-0.007-0.006-0.011-0.011-0.019-0.016c-0.401-0.23-0.795-0.465-1.196-0.701c-0.012-0.006-0.03-0.012-0.043-0.025
		c-1.195-0.704-2.382-1.423-3.563-2.152c-0.011-0.008-0.021-0.011-0.029-0.017v193.927h234.712V368.207
		C329.967,380.734,311.437,390.621,291.652,397.623z M170.405,543.355h-18.928V438.943h18.928V543.355z M238.633,543.355h-18.927
		V438.943h18.927V543.355z M306.862,543.355h-18.924V438.943h18.924V543.355z"/>
</g>
</svg>
