<?xml version="1.0" encoding="utf-8"?>
<!-- Generator: Adobe Illustrator 16.0.0, SVG Export Plug-In . SVG Version: 6.00 Build 0)  -->
<!DOCTYPE svg PUBLIC "-//W3C//DTD SVG 1.1//EN" "http://www.w3.org/Graphics/SVG/1.1/DTD/svg11.dtd">
<svg version="1.1" id="Layer_1" xmlns="http://www.w3.org/2000/svg" xmlns:xlink="http://www.w3.org/1999/xlink" x="0px" y="0px"
	 width="723.516px" height="1032.676px" viewBox="0 0 723.516 1032.676" enable-background="new 0 0 723.516 1032.676"
	 xml:space="preserve">
<g>
	<path fill="#00A651" d="M665.985,224.197c-13.677-48.16-40.315-93.482-78.416-131.6C463.142-31.816,261.812-30.389,137.395,94.041
		c-37.523,37.523-65.318,83.438-79.877,130.168h110.967c8.79-20.779,24.146-40.148,41.541-57.539
		c84.845-84.857,221.498-84.883,304.926-1.455c17.999,17.982,30.908,38.117,41.697,58.994h-54.656l0,0l54.656,69.023l54.646,69.025
		l56.11-70.453l56.111-67.623L665.985,224.197z"/>
	<path fill="#00A651" d="M555.024,419.363c-8.787,20.777-24.144,40.143-41.534,57.531c-42.205,42.209-97.23,63.424-152.145,63.822
		c-1.174,0.01-2.346,0.012-3.518,0c-54.299-0.482-108.223-21.33-149.264-62.371c-17.993-17.979-30.906-38.109-41.691-58.982
		c-0.002-0.004-0.004-0.006-0.006-0.008h54.66l-54.66-69.027l-54.646-69.025L56.108,351.76L0,419.377l57.528-0.014v33.289v580.023
		h608.469V450.713v-31.35H555.024z M563.155,570.395v13.885v13.613v331.943H160.37V600.34v-13.537V573
		c1.487,1.209,2.985,2.398,4.487,3.574c0.398,0.314,0.795,0.627,1.192,0.936c0.565,0.439,1.135,0.873,1.702,1.307
		c0.428,0.326,0.854,0.656,1.281,0.977c0.563,0.426,1.127,0.85,1.692,1.271c0.436,0.324,0.872,0.65,1.31,0.975
		c0.565,0.416,1.131,0.828,1.698,1.242c0.438,0.32,0.877,0.637,1.316,0.953c0.571,0.412,1.143,0.822,1.717,1.229
		c0.436,0.311,0.87,0.615,1.308,0.92c0.582,0.41,1.162,0.82,1.746,1.223c0.416,0.289,0.835,0.572,1.252,0.859
		c0.606,0.416,1.213,0.834,1.824,1.244c0.212,0.145,0.429,0.285,0.644,0.43c1.382,0.93,2.771,1.844,4.165,2.75
		c0.38,0.248,0.76,0.498,1.142,0.74c0.606,0.391,1.217,0.777,1.828,1.162c0.433,0.275,0.864,0.547,1.298,0.818
		c0.6,0.377,1.202,0.75,1.805,1.119c0.445,0.277,0.89,0.549,1.335,0.82c0.603,0.367,1.203,0.73,1.806,1.094
		c0.447,0.27,0.897,0.537,1.347,0.803c0.604,0.361,1.214,0.721,1.82,1.076c0.443,0.26,0.889,0.516,1.335,0.773
		c0.616,0.355,1.233,0.711,1.853,1.066c0.423,0.238,0.846,0.475,1.271,0.713c0.644,0.363,1.29,0.729,1.936,1.086
		c0.272,0.152,0.547,0.299,0.819,0.449c1.456,0.801,2.919,1.59,4.384,2.365c0.326,0.172,0.65,0.346,0.974,0.516
		c0.656,0.346,1.314,0.684,1.973,1.023c0.425,0.219,0.851,0.439,1.277,0.656c0.64,0.326,1.281,0.646,1.923,0.969
		c0.445,0.223,0.89,0.445,1.337,0.67c0.636,0.313,1.275,0.627,1.913,0.938c0.451,0.221,0.901,0.438,1.353,0.654
		c0.643,0.311,1.284,0.615,1.926,0.92c0.445,0.211,0.891,0.418,1.337,0.627c0.653,0.305,1.308,0.609,1.964,0.91
		c0.419,0.191,0.838,0.383,1.259,0.572c0.685,0.309,1.372,0.621,2.059,0.926c0.285,0.127,0.571,0.25,0.856,0.377
		c1.65,0.727,3.303,1.441,4.962,2.139c0.18,0.074,0.357,0.152,0.536,0.227c0.716,0.297,1.433,0.59,2.15,0.885
		c0.4,0.164,0.798,0.328,1.198,0.492c0.686,0.275,1.368,0.549,2.053,0.82c0.436,0.172,0.871,0.344,1.307,0.516
		c0.677,0.264,1.352,0.525,2.028,0.785c0.443,0.17,0.887,0.34,1.33,0.506c0.679,0.258,1.36,0.512,2.041,0.764
		c0.436,0.162,0.87,0.32,1.308,0.48c0.693,0.252,1.387,0.506,2.082,0.756c0.404,0.145,0.809,0.285,1.213,0.43
		c0.73,0.256,1.461,0.516,2.193,0.768c0.272,0.092,0.547,0.184,0.819,0.275c2.67,0.912,5.352,1.787,8.04,2.625
		c0.351,0.109,0.701,0.223,1.05,0.33c0.737,0.227,1.472,0.445,2.208,0.668c0.408,0.123,0.817,0.244,1.226,0.365
		c0.72,0.213,1.442,0.424,2.162,0.629c0.423,0.123,0.846,0.244,1.269,0.363c0.723,0.205,1.442,0.404,2.167,0.605
		c0.412,0.113,0.829,0.227,1.244,0.34c0.736,0.197,1.473,0.396,2.212,0.59c0.379,0.104,0.761,0.199,1.141,0.297
		c0.775,0.203,1.554,0.404,2.331,0.6c0.248,0.061,0.497,0.123,0.745,0.184c2.828,0.703,5.663,1.367,8.507,1.99
		c0.264,0.059,0.527,0.119,0.792,0.176c0.796,0.174,1.595,0.34,2.392,0.508c0.364,0.076,0.729,0.152,1.095,0.229
		c0.77,0.156,1.542,0.309,2.313,0.463c0.388,0.076,0.777,0.152,1.165,0.227c0.768,0.148,1.535,0.297,2.303,0.438
		c0.384,0.074,0.768,0.143,1.151,0.213c0.784,0.141,1.566,0.281,2.35,0.418c0.345,0.063,0.689,0.119,1.032,0.178
		c0.829,0.141,1.656,0.279,2.486,0.416c0.206,0.033,0.412,0.066,0.618,0.1c3.031,0.486,6.068,0.928,9.109,1.328
		c0.124,0.018,0.248,0.033,0.371,0.051c0.871,0.113,1.744,0.219,2.618,0.324c0.302,0.037,0.603,0.074,0.904,0.113
		c0.825,0.096,1.652,0.189,2.478,0.279c0.345,0.037,0.688,0.078,1.029,0.113c0.817,0.09,1.635,0.172,2.451,0.254
		c0.343,0.033,0.684,0.066,1.023,0.1c0.832,0.08,1.663,0.158,2.494,0.23c0.302,0.027,0.603,0.055,0.904,0.078
		c0.879,0.074,1.758,0.148,2.637,0.215c0.159,0.014,0.319,0.025,0.48,0.037c4.159,0.314,8.323,0.547,12.491,0.697
		c0.216,0.01,0.433,0.018,0.649,0.025c0.887,0.029,1.776,0.057,2.666,0.078c0.282,0.008,0.567,0.018,0.85,0.021
		c0.869,0.02,1.739,0.037,2.608,0.049c0.29,0.004,0.579,0.008,0.868,0.012c0.881,0.014,1.762,0.02,2.643,0.023
		c0.25,0.002,0.5,0,0.749,0.002c0.931,0,1.859,0,2.788-0.006c0.111-0.002,0.223-0.002,0.334-0.004
		c4.289-0.035,8.576-0.154,12.861-0.361c0.114-0.006,0.228-0.012,0.341-0.018c0.953-0.045,1.904-0.098,2.855-0.154
		c0.217-0.014,0.434-0.025,0.65-0.039c0.92-0.053,1.838-0.115,2.758-0.178c0.235-0.016,0.469-0.033,0.704-0.049
		c0.926-0.066,1.853-0.137,2.776-0.211c0.198-0.016,0.396-0.033,0.595-0.049c0.974-0.078,1.945-0.162,2.919-0.25
		c0.063-0.006,0.126-0.01,0.188-0.018c5.424-0.496,10.836-1.133,16.232-1.908c0.143-0.02,0.283-0.041,0.426-0.061
		c0.968-0.141,1.935-0.285,2.9-0.434c0.178-0.027,0.353-0.055,0.53-0.082c0.966-0.15,1.932-0.307,2.896-0.465
		c0.146-0.025,0.291-0.047,0.438-0.072c1.009-0.17,2.021-0.342,3.029-0.52c0.019-0.004,0.039-0.006,0.06-0.01
		c2.729-0.484,5.453-1.002,8.17-1.555c2.718-0.553,5.431-1.143,8.136-1.77c0.065-0.016,0.13-0.029,0.195-0.047
		c1.007-0.23,2.017-0.469,3.021-0.713c0.12-0.029,0.24-0.059,0.359-0.086c0.996-0.244,1.993-0.492,2.987-0.744
		c0.102-0.023,0.202-0.051,0.302-0.076c1.128-0.287,2.253-0.582,3.375-0.881c6.388-1.699,12.734-3.598,19.029-5.697
		c0.067-0.021,0.136-0.047,0.204-0.066c1.015-0.342,2.03-0.686,3.043-1.037c0.06-0.02,0.12-0.043,0.182-0.061
		c3.712-1.287,7.407-2.646,11.079-4.074c3.673-1.426,7.324-2.922,10.956-4.488c0.026-0.012,0.054-0.025,0.078-0.037
		c1.018-0.438,2.034-0.883,3.05-1.336c0.032-0.014,0.065-0.029,0.101-0.045c4.147-1.846,8.261-3.783,12.345-5.814
		c4.08-2.027,8.126-4.152,12.138-6.367c0.019-0.01,0.037-0.02,0.056-0.029c4.013-2.217,7.988-4.527,11.925-6.932
		c3.937-2.402,7.832-4.898,11.684-7.484c0.019-0.01,0.035-0.023,0.054-0.035c7.696-5.172,15.221-10.715,22.545-16.623
		c0.026-0.023,0.054-0.043,0.08-0.068c0.904-0.727,1.806-1.463,2.701-2.203c0.004-0.002,0.008-0.006,0.013-0.008
		C563.159,570.391,563.157,570.395,563.155,570.395z"/>
	<path fill="none" d="M215.167,632.93c0.755,0.357,1.51,0.709,2.27,1.061C216.677,633.639,215.922,633.287,215.167,632.93z"/>
	<path fill="none" d="M229.995,639.498c0.272,0.113,0.547,0.229,0.823,0.344C230.542,639.727,230.268,639.611,229.995,639.498z"/>
	<path fill="none" d="M218.644,634.547c0.423,0.193,0.846,0.389,1.271,0.58C219.489,634.936,219.066,634.74,218.644,634.547z"/>
	<path fill="none" d="M227.224,638.338c0.349,0.148,0.702,0.297,1.053,0.443C227.926,638.635,227.572,638.486,227.224,638.338z"/>
	<path fill="none" d="M210.19,630.531c0.501,0.246,1.005,0.492,1.506,0.734C211.195,631.023,210.691,630.777,210.19,630.531z"/>
	<path fill="none" d="M221.218,635.715c0.388,0.174,0.773,0.346,1.164,0.52C221.991,636.061,221.605,635.889,221.218,635.715z"/>
	<path fill="none" d="M212.627,631.717c0.482,0.234,0.966,0.465,1.45,0.697C213.593,632.182,213.109,631.951,212.627,631.717z"/>
	<path fill="none" d="M187.942,618.502c0.646,0.381,1.292,0.76,1.939,1.137C189.234,619.262,188.589,618.883,187.942,618.502z"/>
	<path fill="none" d="M189.915,619.658c1.913,1.111,3.838,2.203,5.771,3.277C193.753,621.861,191.828,620.77,189.915,619.658z"/>
	<path fill="none" d="M182.081,614.959c1.919,1.186,3.848,2.354,5.789,3.5C185.929,617.313,184,616.145,182.081,614.959z"/>
	<path fill="none" d="M204.215,627.512c0.562,0.289,1.121,0.578,1.682,0.865C205.336,628.09,204.776,627.801,204.215,627.512z"/>
	<path fill="none" d="M206.303,628.582c1.061,0.539,2.123,1.074,3.19,1.604C208.426,629.656,207.363,629.121,206.303,628.582z"/>
	<path fill="none" d="M197.97,624.193c1.874,1.02,3.76,2.023,5.653,3.008C201.729,626.217,199.844,625.213,197.97,624.193z"/>
	<path fill="none" d="M195.989,623.104c0.615,0.342,1.229,0.682,1.847,1.016C197.219,623.785,196.604,623.445,195.989,623.104z"/>
	<path fill="none" d="M224.657,637.234c0.332,0.143,0.664,0.287,0.994,0.43C225.321,637.521,224.989,637.379,224.657,637.234z"/>
	<path fill="none" d="M241.968,644.195c0.249,0.092,0.501,0.184,0.751,0.275C242.469,644.379,242.217,644.287,241.968,644.195z"/>
	<path fill="none" d="M238.953,643.063c0.145,0.055,0.289,0.111,0.434,0.166C239.242,643.174,239.098,643.117,238.953,643.063z"/>
	<path fill="none" d="M244.685,645.188c0.258,0.092,0.516,0.186,0.773,0.277C245.2,645.373,244.942,645.279,244.685,645.188z"/>
	<path fill="none" d="M235.912,641.885c0.293,0.117,0.586,0.23,0.879,0.346C236.498,642.115,236.205,642.002,235.912,641.885z"/>
	<path fill="none" d="M233.267,640.836c0.272,0.111,0.549,0.219,0.821,0.33C233.815,641.055,233.539,640.947,233.267,640.836z"/>
	<path fill="#036D32" d="M205.896,628.377c0.137,0.066,0.271,0.137,0.406,0.205C206.167,628.514,206.033,628.443,205.896,628.377z"
		/>
	<path fill="#036D32" d="M245.458,645.465c0.877,0.314,1.756,0.625,2.638,0.934C247.214,646.09,246.335,645.779,245.458,645.465z"/>
	<path fill="#036D32" d="M203.623,627.201c0.198,0.104,0.396,0.207,0.592,0.311C204.02,627.408,203.821,627.305,203.623,627.201z"/>
	<path fill="#036D32" d="M197.836,624.119c0.045,0.025,0.089,0.051,0.134,0.074C197.925,624.17,197.881,624.145,197.836,624.119z"/>
	<path fill="#036D32" d="M187.87,618.459c0.023,0.016,0.048,0.027,0.072,0.043C187.918,618.486,187.894,618.475,187.87,618.459z"/>
	<path fill="#036D32" d="M189.882,619.639c0.011,0.006,0.023,0.014,0.033,0.02C189.905,619.652,189.893,619.645,189.882,619.639z"/>
	<path fill="#036D32" d="M195.686,622.936c0.102,0.057,0.202,0.113,0.304,0.168C195.888,623.049,195.787,622.992,195.686,622.936z"
		/>
	<path fill="#036D32" d="M563.149,570.398c-0.896,0.74-1.797,1.477-2.701,2.203c-0.026,0.025-0.054,0.045-0.08,0.068
		c-7.324,5.908-14.849,11.451-22.545,16.623c-0.019,0.012-0.035,0.025-0.054,0.035c-3.852,2.586-7.747,5.082-11.684,7.484
		c-3.937,2.404-7.912,4.715-11.925,6.932c-0.019,0.01-0.037,0.02-0.056,0.029c-4.012,2.215-8.058,4.34-12.138,6.367
		c-4.084,2.031-8.197,3.969-12.345,5.814c-0.035,0.016-0.068,0.031-0.101,0.045c-1.016,0.453-2.032,0.898-3.05,1.336
		c-0.024,0.012-0.052,0.025-0.078,0.037c-3.632,1.566-7.283,3.063-10.956,4.488c-3.672,1.428-7.367,2.787-11.079,4.074
		c-0.062,0.018-0.122,0.041-0.182,0.061c-1.013,0.352-2.028,0.695-3.043,1.037c-0.068,0.02-0.137,0.045-0.204,0.066
		c-6.295,2.102-12.642,3.998-19.029,5.697c-1.122,0.299-2.247,0.594-3.375,0.881c-0.1,0.025-0.2,0.053-0.302,0.076
		c-0.994,0.252-1.991,0.5-2.987,0.744c-0.119,0.027-0.239,0.057-0.359,0.086c-1.004,0.244-2.014,0.482-3.021,0.713
		c-0.065,0.018-0.13,0.031-0.195,0.047c-2.705,0.627-5.418,1.217-8.136,1.77c-2.717,0.553-5.44,1.072-8.17,1.555
		c-0.021,0.004-0.041,0.006-0.06,0.01c-1.009,0.178-2.021,0.35-3.029,0.52c-0.146,0.025-0.291,0.047-0.438,0.072
		c-0.965,0.158-1.931,0.314-2.896,0.465c-0.178,0.027-0.353,0.055-0.53,0.082c-0.966,0.148-1.933,0.293-2.9,0.434
		c-0.143,0.02-0.283,0.041-0.426,0.061c-5.396,0.775-10.809,1.412-16.232,1.908c-0.063,0.008-0.126,0.012-0.188,0.018
		c-0.974,0.088-1.945,0.172-2.919,0.25c-0.198,0.016-0.396,0.033-0.595,0.049c-0.924,0.074-1.851,0.145-2.776,0.211
		c-0.235,0.016-0.469,0.033-0.704,0.049c-0.92,0.063-1.838,0.125-2.758,0.178c-0.217,0.014-0.434,0.025-0.65,0.039
		c-0.951,0.057-1.902,0.109-2.855,0.154c-0.113,0.006-0.227,0.012-0.341,0.018c-4.285,0.207-8.572,0.326-12.861,0.361
		c-0.111,0.002-0.223,0.002-0.334,0.004c-0.929,0.006-1.857,0.006-2.788,0.006c-0.249-0.002-0.499,0-0.749-0.002
		c-0.881-0.004-1.762-0.01-2.643-0.023c-0.289-0.004-0.578-0.008-0.868-0.012c-0.869-0.012-1.739-0.029-2.608-0.049
		c-0.282-0.004-0.567-0.014-0.85-0.021c-0.89-0.021-1.779-0.049-2.666-0.078c-0.217-0.008-0.434-0.016-0.649-0.025
		c-4.168-0.15-8.332-0.383-12.491-0.697c-0.161-0.012-0.321-0.023-0.48-0.037c-0.879-0.066-1.758-0.141-2.637-0.215
		c-0.302-0.023-0.603-0.051-0.904-0.078c-0.831-0.072-1.662-0.15-2.494-0.23c-0.34-0.033-0.681-0.066-1.023-0.1
		c-0.816-0.082-1.634-0.164-2.451-0.254c-0.342-0.035-0.685-0.076-1.029-0.113c-0.825-0.09-1.652-0.184-2.478-0.279
		c-0.302-0.039-0.603-0.076-0.904-0.113c-0.874-0.105-1.747-0.211-2.618-0.324c-0.123-0.018-0.247-0.033-0.371-0.051
		c-3.041-0.4-6.078-0.842-9.109-1.328c-0.206-0.033-0.412-0.066-0.618-0.1c-0.83-0.137-1.657-0.275-2.486-0.416
		c-0.343-0.059-0.688-0.115-1.032-0.178c-0.783-0.137-1.565-0.277-2.35-0.418c-0.384-0.07-0.768-0.139-1.151-0.213
		c-0.768-0.141-1.535-0.289-2.303-0.438c-0.388-0.074-0.777-0.15-1.165-0.227c-0.771-0.154-1.544-0.307-2.313-0.463
		c-0.365-0.076-0.73-0.152-1.095-0.229c-0.797-0.168-1.596-0.334-2.392-0.508c-0.265-0.057-0.528-0.117-0.792-0.176
		c-2.844-0.623-5.679-1.287-8.507-1.99c-0.248-0.061-0.497-0.123-0.745-0.184c-0.777-0.195-1.556-0.396-2.331-0.6
		c-0.38-0.098-0.762-0.193-1.141-0.297c-0.739-0.193-1.476-0.393-2.212-0.59c-0.415-0.113-0.832-0.227-1.244-0.34
		c-0.725-0.201-1.444-0.4-2.167-0.605c-0.423-0.119-0.846-0.24-1.269-0.363c-0.72-0.205-1.442-0.416-2.162-0.629
		c-0.408-0.121-0.817-0.242-1.226-0.365c-0.736-0.223-1.471-0.441-2.208-0.668c-0.349-0.107-0.699-0.221-1.05-0.33
		c-2.69-0.838-5.37-1.713-8.04-2.625c-0.272-0.092-0.547-0.184-0.819-0.275c-0.732-0.252-1.463-0.512-2.193-0.768
		c-0.404-0.145-0.809-0.285-1.213-0.43c-0.695-0.25-1.389-0.504-2.082-0.756c-0.438-0.16-0.872-0.318-1.308-0.48
		c-0.681-0.252-1.362-0.506-2.041-0.764c-0.443-0.166-0.887-0.336-1.33-0.506c-0.677-0.26-1.352-0.521-2.028-0.785
		c-0.436-0.172-0.871-0.344-1.307-0.516c-0.685-0.271-1.367-0.545-2.053-0.82c-0.4-0.164-0.798-0.328-1.198-0.492
		c-0.718-0.295-1.435-0.588-2.15-0.885c-0.179-0.074-0.356-0.152-0.536-0.227c-1.659-0.697-3.312-1.412-4.962-2.139
		c-0.285-0.127-0.571-0.25-0.856-0.377c-0.687-0.305-1.374-0.617-2.059-0.926c-0.421-0.189-0.84-0.381-1.259-0.572
		c-0.656-0.301-1.311-0.605-1.964-0.91c-0.446-0.209-0.892-0.416-1.337-0.627c-0.642-0.305-1.283-0.609-1.926-0.92
		c-0.451-0.217-0.901-0.434-1.353-0.654c-0.638-0.311-1.277-0.625-1.913-0.938c-0.447-0.225-0.892-0.447-1.337-0.67
		c-0.642-0.322-1.283-0.643-1.923-0.969c-0.427-0.217-0.853-0.438-1.277-0.656c-0.658-0.34-1.316-0.678-1.973-1.023
		c-0.323-0.17-0.647-0.344-0.974-0.516c-1.465-0.775-2.928-1.564-4.384-2.365c-0.272-0.15-0.547-0.297-0.819-0.449
		c-0.646-0.357-1.292-0.723-1.936-1.086c-0.425-0.238-0.848-0.475-1.271-0.713c-0.619-0.355-1.236-0.711-1.853-1.066
		c-0.446-0.258-0.892-0.514-1.335-0.773c-0.606-0.355-1.216-0.715-1.82-1.076c-0.449-0.266-0.899-0.533-1.347-0.803
		c-0.603-0.363-1.203-0.727-1.806-1.094c-0.445-0.271-0.89-0.543-1.335-0.82c-0.603-0.369-1.205-0.742-1.805-1.119
		c-0.434-0.271-0.865-0.543-1.298-0.818c-0.611-0.385-1.222-0.771-1.828-1.162c-0.382-0.242-0.762-0.492-1.142-0.74
		c-1.395-0.906-2.783-1.82-4.165-2.75c-0.215-0.145-0.432-0.285-0.644-0.43c-0.287-0.193-0.572-0.387-0.856-0.584
		c-0.324-0.221-0.646-0.439-0.968-0.66c-0.417-0.287-0.836-0.57-1.252-0.859c-0.584-0.402-1.164-0.813-1.746-1.223
		c-0.438-0.305-0.872-0.609-1.308-0.92c-0.574-0.406-1.146-0.816-1.717-1.229c-0.439-0.316-0.879-0.633-1.316-0.953
		c-0.567-0.414-1.133-0.826-1.698-1.242c-0.438-0.324-0.874-0.65-1.31-0.975c-0.565-0.422-1.129-0.846-1.692-1.271
		c-0.427-0.32-0.854-0.65-1.281-0.977c-0.567-0.434-1.137-0.867-1.702-1.307c-0.397-0.309-0.794-0.621-1.192-0.936
		c-1.502-1.176-3-2.365-4.487-3.574v13.803v13.537v329.496h21.67V614.934c0.013,0.008,0.026,0.018,0.041,0.025
		c1.919,1.186,3.848,2.354,5.789,3.5c0.023,0.016,0.048,0.027,0.072,0.043c0.646,0.381,1.292,0.76,1.939,1.137
		c0.011,0.006,0.023,0.014,0.033,0.02c1.913,1.111,3.838,2.203,5.771,3.277c0.102,0.057,0.202,0.113,0.304,0.168
		c0.615,0.342,1.229,0.682,1.847,1.016c0.045,0.025,0.089,0.051,0.134,0.074c1.874,1.02,3.76,2.023,5.653,3.008
		c0.198,0.104,0.396,0.207,0.592,0.311c0.562,0.289,1.121,0.578,1.682,0.865c0.137,0.066,0.271,0.137,0.406,0.205
		c1.061,0.539,2.123,1.074,3.19,1.604c0.232,0.115,0.466,0.23,0.697,0.346c0.501,0.246,1.005,0.492,1.506,0.734
		c0.31,0.154,0.619,0.303,0.931,0.451c0.482,0.234,0.966,0.465,1.45,0.697c0.363,0.172,0.727,0.344,1.09,0.516
		c0.755,0.357,1.51,0.709,2.27,1.061c0.402,0.188,0.805,0.375,1.207,0.557c0.423,0.193,0.846,0.389,1.271,0.58
		c0.434,0.195,0.868,0.395,1.304,0.588c0.388,0.174,0.773,0.346,1.164,0.52c0.757,0.336,1.515,0.67,2.275,1
		c0.332,0.145,0.664,0.287,0.994,0.43c0.524,0.225,1.047,0.449,1.572,0.674c0.349,0.148,0.702,0.297,1.053,0.443
		c0.571,0.242,1.145,0.48,1.719,0.717c0.272,0.113,0.547,0.229,0.823,0.344c0.814,0.334,1.63,0.666,2.448,0.994
		c0.272,0.111,0.549,0.219,0.821,0.33c0.609,0.238,1.216,0.482,1.824,0.719c0.293,0.117,0.586,0.23,0.879,0.346
		c0.72,0.281,1.44,0.557,2.162,0.832c0.145,0.055,0.289,0.111,0.434,0.166c0.858,0.326,1.719,0.648,2.581,0.967
		c0.249,0.092,0.501,0.184,0.751,0.275c0.654,0.24,1.31,0.479,1.966,0.717c0.258,0.092,0.516,0.186,0.773,0.277
		c0.877,0.314,1.756,0.625,2.638,0.934c35.844,12.482,73.367,18.814,111.527,18.816h0.025c38.937,0,77.269-6.58,113.934-19.559
		c32.124-11.369,62.216-27.424,89.573-47.764v-13.613v-13.885C563.153,570.396,563.151,570.398,563.149,570.398z"/>
	<path fill="#036D32" d="M228.276,638.781c0.571,0.242,1.145,0.48,1.719,0.717C229.421,639.262,228.848,639.023,228.276,638.781z"/>
	<path fill="#036D32" d="M234.088,641.166c0.609,0.238,1.216,0.482,1.824,0.719C235.304,641.648,234.697,641.404,234.088,641.166z"
		/>
	<path fill="#036D32" d="M222.382,636.234c0.757,0.336,1.515,0.67,2.275,1C223.896,636.904,223.139,636.57,222.382,636.234z"/>
	<path fill="#036D32" d="M219.914,635.127c0.434,0.195,0.868,0.395,1.304,0.588C220.782,635.521,220.348,635.322,219.914,635.127z"
		/>
	<path fill="#036D32" d="M236.791,642.23c0.72,0.281,1.44,0.557,2.162,0.832C238.231,642.787,237.511,642.512,236.791,642.23z"/>
	<path fill="#036D32" d="M225.651,637.664c0.524,0.225,1.047,0.447,1.572,0.674C226.698,638.113,226.176,637.889,225.651,637.664z"
		/>
	<path fill="#036D32" d="M230.818,639.842c0.814,0.334,1.63,0.666,2.448,0.994C232.448,640.508,231.633,640.176,230.818,639.842z"/>
	<path fill="#036D32" d="M217.437,633.99c0.402,0.188,0.805,0.375,1.207,0.557C218.241,634.365,217.839,634.178,217.437,633.99z"/>
	<path fill="#036D32" d="M242.719,644.471c0.654,0.24,1.31,0.479,1.966,0.717C244.028,644.949,243.373,644.711,242.719,644.471z"/>
	<path fill="#036D32" d="M211.696,631.266c0.31,0.154,0.619,0.303,0.931,0.451C212.315,631.568,212.006,631.42,211.696,631.266z"/>
	<path fill="#036D32" d="M209.493,630.186c0.232,0.115,0.466,0.23,0.697,0.346C209.959,630.416,209.726,630.301,209.493,630.186z"/>
	<path fill="#036D32" d="M239.387,643.229c0.858,0.326,1.719,0.648,2.581,0.967C241.105,643.877,240.245,643.555,239.387,643.229z"
		/>
	<path fill="#036D32" d="M214.077,632.414c0.363,0.172,0.727,0.344,1.09,0.516C214.804,632.758,214.44,632.586,214.077,632.414z"/>
	<path fill="#09AF50" d="M473.582,645.656c-36.665,12.979-74.997,19.559-113.934,19.559h-0.025
		c-38.16-0.002-75.684-6.334-111.527-18.816c-0.882-0.309-1.761-0.619-2.638-0.934c-0.258-0.092-0.516-0.186-0.773-0.277
		c-0.656-0.238-1.312-0.477-1.966-0.717c-0.25-0.092-0.502-0.184-0.751-0.275c-0.862-0.318-1.723-0.641-2.581-0.967
		c-0.145-0.055-0.289-0.111-0.434-0.166c-0.722-0.275-1.442-0.551-2.162-0.832c-0.293-0.115-0.586-0.229-0.879-0.346
		c-0.608-0.236-1.215-0.48-1.824-0.719c-0.272-0.111-0.549-0.219-0.821-0.33c-0.818-0.328-1.634-0.66-2.448-0.994
		c-0.276-0.115-0.551-0.23-0.823-0.344c-0.574-0.236-1.147-0.475-1.719-0.717c-0.351-0.146-0.704-0.295-1.053-0.443
		c-0.525-0.227-1.048-0.449-1.572-0.674c-0.33-0.143-0.662-0.287-0.994-0.43c-0.761-0.33-1.519-0.664-2.275-1
		c-0.391-0.174-0.776-0.346-1.164-0.52c-0.436-0.193-0.87-0.393-1.304-0.588c-0.425-0.191-0.848-0.387-1.271-0.58
		c-0.402-0.182-0.805-0.369-1.207-0.557c-0.76-0.352-1.515-0.703-2.27-1.061c-0.363-0.172-0.727-0.344-1.09-0.516
		c-0.484-0.232-0.968-0.463-1.45-0.697c-0.312-0.148-0.621-0.297-0.931-0.451c-0.501-0.242-1.005-0.488-1.506-0.734
		c-0.231-0.115-0.465-0.23-0.697-0.346c-1.067-0.529-2.13-1.064-3.19-1.604c-0.136-0.068-0.27-0.139-0.406-0.205
		c-0.561-0.287-1.12-0.576-1.682-0.865c-0.195-0.104-0.394-0.207-0.592-0.311c-1.894-0.984-3.779-1.988-5.653-3.008
		c-0.045-0.023-0.089-0.049-0.134-0.074c-0.617-0.334-1.231-0.674-1.847-1.016c-0.102-0.055-0.202-0.111-0.304-0.168
		c-1.933-1.074-3.857-2.166-5.771-3.277c-0.01-0.006-0.022-0.014-0.033-0.02c-0.647-0.377-1.293-0.756-1.939-1.137
		c-0.024-0.016-0.049-0.027-0.072-0.043c-1.941-1.146-3.87-2.314-5.789-3.5c-0.015-0.008-0.028-0.018-0.041-0.025v314.902h381.115
		V597.893C535.798,618.232,505.706,634.287,473.582,645.656z M276.699,882.297h-30.731V712.752h30.731V882.297z M387.491,882.297
		H356.76V712.752h30.731V882.297z M498.282,882.297h-30.731V712.752h30.731V882.297z"/>
</g>
</svg>
